<svg xmlns="http://www.w3.org/2000/svg" viewBox="0 0 800 500" role="img" aria-labelledby="title">
  <title id="title">無料相談のイメージ</title>
  <defs>
    <linearGradient id="bg" x1="0" x2="1" y1="0" y2="1">
      <stop offset="0" stop-color="#fff7f4"/>
      <stop offset="1" stop-color="#dbe8ee"/>
    </linearGradient>
  </defs>
  <rect width="800" height="500" fill="url(#bg)"/>
  <circle cx="665" cy="108" r="106" fill="#fffdf9" opacity=".72"/>
  <circle cx="144" cy="390" r="150" fill="#f1c0af" opacity=".2"/>
  <rect x="138" y="298" width="524" height="72" rx="18" fill="#fffdf9"/>
  <rect x="184" y="356" width="432" height="16" rx="8" fill="#eadfd6"/>
  <circle cx="268" cy="198" r="48" fill="#f1c0af"/>
  <path d="M216 196c6-48 42-70 88-47 24 13 32 42 20 74-36 1-75-2-108-27z" fill="#6b4a3e"/>
  <path d="M180 318c14-55 50-82 92-82s78 27 92 82z" fill="#ffffff"/>
  <path d="M229 247c16 20 62 20 78 0l-8 35c-14 12-49 12-62 0z" fill="#f1c0af"/>
  <circle cx="248" cy="202" r="4" fill="#5d463e"/>
  <circle cx="288" cy="202" r="4" fill="#5d463e"/>
  <path d="M254 222c12 8 25 8 38 0" fill="none" stroke="#a66d62" stroke-width="4" stroke-linecap="round"/>
  <circle cx="512" cy="194" r="44" fill="#e8b7a8"/>
  <path d="M467 190c6-45 39-64 82-44 22 11 29 38 18 68-33 1-70-1-100-24z" fill="#8c6251"/>
  <path d="M432 318c13-51 46-76 84-76s72 25 84 76z" fill="#f7fbfc"/>
  <path d="M477 246c15 18 56 18 72 0l-7 32c-13 11-45 11-58 0z" fill="#e8b7a8"/>
  <circle cx="494" cy="197" r="4" fill="#5d463e"/>
  <circle cx="530" cy="197" r="4" fill="#5d463e"/>
  <path d="M260 334h280" fill="none" stroke="#cfa48f" stroke-width="10" stroke-linecap="round" opacity=".46"/>
  <path d="M300 282c44 28 154 28 198 0" fill="none" stroke="#b89b74" stroke-width="10" stroke-linecap="round" opacity=".35"/>
  <rect x="0" y="0" width="800" height="500" fill="none" stroke="#eadfd6" stroke-width="16"/>
</svg>
