<svg xmlns="http://www.w3.org/2000/svg" viewBox="0 0 800 500" role="img" aria-labelledby="title">
  <title id="title">ご成婚のイメージ</title>
  <defs>
    <linearGradient id="bg" x1="0" x2="1" y1="0" y2="1">
      <stop offset="0" stop-color="#fff7f4"/>
      <stop offset="1" stop-color="#dbe8ee"/>
    </linearGradient>
  </defs>
  <rect width="800" height="500" fill="url(#bg)"/>
  <circle cx="650" cy="112" r="106" fill="#fffdf9" opacity=".72"/>
  <circle cx="150" cy="392" r="150" fill="#f1c0af" opacity=".18"/>
  <circle cx="306" cy="210" r="48" fill="#f1c0af"/>
  <path d="M254 208c6-49 43-71 90-47 24 12 32 42 20 74-36 1-76-2-110-27z" fill="#6b4a3e"/>
  <path d="M212 348c15-66 53-100 96-100s81 34 96 100z" fill="#ffffff"/>
  <circle cx="286" cy="215" r="4" fill="#5d463e"/>
  <circle cx="322" cy="215" r="4" fill="#5d463e"/>
  <path d="M292 236c11 8 25 8 36 0" fill="none" stroke="#a66d62" stroke-width="4" stroke-linecap="round"/>
  <circle cx="494" cy="210" r="48" fill="#e8b7a8"/>
  <path d="M442 208c6-49 43-71 90-47 24 12 32 42 20 74-36 1-76-2-110-27z" fill="#8c6251"/>
  <path d="M396 348c15-66 53-100 96-100s81 34 96 100z" fill="#f7fbfc"/>
  <circle cx="474" cy="215" r="4" fill="#5d463e"/>
  <circle cx="510" cy="215" r="4" fill="#5d463e"/>
  <path d="M480 236c11 8 25 8 36 0" fill="none" stroke="#a66d62" stroke-width="4" stroke-linecap="round"/>
  <path d="M330 360c46 28 94 28 140 0" fill="none" stroke="#cfa48f" stroke-width="12" stroke-linecap="round" opacity=".38"/>
  <circle cx="382" cy="334" r="22" fill="none" stroke="#b89b74" stroke-width="10"/>
  <circle cx="420" cy="334" r="22" fill="none" stroke="#cfa48f" stroke-width="10"/>
  <path d="M362 132c13-25 49-25 62 0 13-25 49-25 62 0 0 43-62 77-62 77s-62-34-62-77z" fill="#f1c0af" opacity=".7"/>
  <rect x="0" y="0" width="800" height="500" fill="none" stroke="#eadfd6" stroke-width="16"/>
</svg>
