<svg xmlns="http://www.w3.org/2000/svg" viewBox="0 0 800 500" role="img" aria-labelledby="title">
  <title id="title">交際のイメージ</title>
  <defs>
    <linearGradient id="bg" x1="0" x2="1" y1="0" y2="1">
      <stop offset="0" stop-color="#fff7f4"/>
      <stop offset="1" stop-color="#dbe8ee"/>
    </linearGradient>
  </defs>
  <rect width="800" height="500" fill="url(#bg)"/>
  <circle cx="150" cy="112" r="104" fill="#fffdf9" opacity=".68"/>
  <circle cx="660" cy="392" r="150" fill="#f1c0af" opacity=".18"/>
  <path d="M212 312c52-92 144-134 190-70 44-64 138-22 190 70-82 56-298 56-380 0z" fill="#fffdf9"/>
  <circle cx="294" cy="206" r="48" fill="#f1c0af"/>
  <path d="M242 204c6-49 43-71 90-47 24 12 32 42 20 74-36 1-76-2-110-27z" fill="#6b4a3e"/>
  <path d="M206 330c14-55 50-83 92-83s78 28 92 83z" fill="#ffffff"/>
  <circle cx="274" cy="211" r="4" fill="#5d463e"/>
  <circle cx="310" cy="211" r="4" fill="#5d463e"/>
  <path d="M280 232c11 8 25 8 36 0" fill="none" stroke="#a66d62" stroke-width="4" stroke-linecap="round"/>
  <circle cx="506" cy="206" r="48" fill="#e8b7a8"/>
  <path d="M454 204c6-49 43-71 90-47 24 12 32 42 20 74-36 1-76-2-110-27z" fill="#8c6251"/>
  <path d="M416 330c14-55 50-83 92-83s78 28 92 83z" fill="#f7fbfc"/>
  <circle cx="486" cy="211" r="4" fill="#5d463e"/>
  <circle cx="522" cy="211" r="4" fill="#5d463e"/>
  <path d="M492 232c11 8 25 8 36 0" fill="none" stroke="#a66d62" stroke-width="4" stroke-linecap="round"/>
  <path d="M370 354c18-18 42-18 60 0 18-18 42-18 60 0" fill="none" stroke="#a66d62" stroke-width="10" stroke-linecap="round"/>
  <circle cx="368" cy="120" r="18" fill="#f1c0af" opacity=".72"/>
  <circle cx="430" cy="116" r="14" fill="#dbe8ee"/>
  <circle cx="468" cy="138" r="10" fill="#cfa48f" opacity=".45"/>
  <rect x="0" y="0" width="800" height="500" fill="none" stroke="#eadfd6" stroke-width="16"/>
</svg>
