<svg xmlns="http://www.w3.org/2000/svg" viewBox="0 0 800 500" role="img" aria-labelledby="title">
  <title id="title">活動準備のイメージ</title>
  <defs>
    <linearGradient id="bg" x1="0" x2="1" y1="0" y2="1">
      <stop offset="0" stop-color="#fff7f4"/>
      <stop offset="1" stop-color="#dbe8ee"/>
    </linearGradient>
  </defs>
  <rect width="800" height="500" fill="url(#bg)"/>
  <circle cx="638" cy="118" r="112" fill="#fffdf9" opacity=".72"/>
  <circle cx="176" cy="398" r="142" fill="#f1c0af" opacity=".18"/>
  <rect x="136" y="122" width="260" height="286" rx="18" fill="#fffdf9"/>
  <circle cx="266" cy="222" r="52" fill="#f1c0af"/>
  <path d="M211 219c7-52 46-76 96-50 26 13 34 45 21 79-38 1-81-3-117-29z" fill="#6b4a3e"/>
  <path d="M174 358c14-58 51-86 94-86s80 28 94 86z" fill="#ffffff"/>
  <path d="M226 274c17 21 66 21 84 0l-8 36c-15 13-52 13-67 0z" fill="#f1c0af"/>
  <circle cx="244" cy="225" r="4" fill="#5d463e"/>
  <circle cx="288" cy="225" r="4" fill="#5d463e"/>
  <path d="M252 248c12 9 28 9 40 0" fill="none" stroke="#a66d62" stroke-width="4" stroke-linecap="round"/>
  <rect x="440" y="144" width="232" height="184" rx="16" fill="#fffdf9"/>
  <rect x="474" y="182" width="134" height="12" rx="6" fill="#cfa48f" opacity=".48"/>
  <rect x="474" y="222" width="160" height="12" rx="6" fill="#eadfd6"/>
  <rect x="474" y="262" width="126" height="12" rx="6" fill="#eadfd6"/>
  <rect x="474" y="302" width="82" height="12" rx="6" fill="#eadfd6"/>
  <rect x="404" y="356" width="304" height="22" rx="11" fill="#cfa48f" opacity=".32"/>
  <path d="M580 366l68-72" fill="none" stroke="#a66d62" stroke-width="12" stroke-linecap="round"/>
  <path d="M646 294l20 20" fill="none" stroke="#6b4a3e" stroke-width="12" stroke-linecap="round"/>
  <rect x="0" y="0" width="800" height="500" fill="none" stroke="#eadfd6" stroke-width="16"/>
</svg>
